<?xml version="1.0" encoding="utf-8"?>
<svg width="824" height="717" preserveAspectRatio="xMidYMid meet" version="1.0" xmlns="http://www.w3.org/2000/svg">
  <defs/>
  <g class="layer" style="" transform="matrix(0.860456, 0, 0, 0.899281, 8.597346, 34.145763)">
    <title>Layer 1</title>
    <g fill="#000000" id="svg_1" transform="matrix(0.1 0 0 -0.1 0 0)">
      <path d="m3138,-59c-80,-26 -136,-61 -192,-120c-116,-125 -137,-291 -50,-405l33,-44l-21,-27c-25,-33 -21,-89 12,-135l22,-31l-40,-38c-32,-31 -43,-51 -52,-95c-14,-68 -8,-110 41,-305c21,-85 39,-170 39,-190c0,-20 -12,-85 -26,-146c-53,-228 -75,-345 -97,-510c-26,-198 -11,-182 -174,-184c-93,-1 -104,-3 -132,-26c-36,-31 -75,-107 -96,-190c-19,-76 -20,-195 -1,-221c26,-34 48,-7 67,84c17,77 63,182 80,182c4,0 14,-19 24,-42c15,-39 15,-44 -1,-81c-15,-33 -16,-45 -5,-85c15,-60 35,-90 72,-110c16,-10 29,-23 29,-29c0,-7 12,-15 28,-19c15,-3 49,-12 75,-20c42,-13 50,-13 68,0c13,9 34,12 53,9c23,-4 36,0 50,15c16,19 17,24 4,50c-14,26 -13,33 4,67c17,32 19,54 16,154l-3,116l209,0l209,0l58,-65c33,-35 59,-69 59,-75c0,-5 -21,-57 -47,-115c-50,-111 -53,-134 -39,-246l8,-61l-46,-52c-39,-43 -51,-68 -78,-157l-32,-106l-31,6c-76,15 -196,18 -260,7c-93,-16 -171,-50 -268,-115c-293,-195 -496,-558 -552,-983c-86,-656 216,-1206 681,-1240c312,-22 632,216 819,611c55,114 94,221 116,320l14,56l95,0c52,0 118,-3 146,-6l51,-6l7,-75c9,-102 38,-173 86,-217c34,-31 47,-36 88,-36c44,0 54,4 126,52c15,11 19,10 24,-1c22,-62 101,-198 146,-253c124,-150 260,-218 436,-218c181,0 340,77 494,240c116,123 199,263 260,439c130,373 109,789 -55,1077c-88,155 -250,286 -389,313c-126,24 -161,23 -264,-4c-54,-14 -100,-24 -103,-22c-6,6 -153,369 -159,392c-3,13 33,121 94,281c172,448 194,536 194,764c0,201 -37,324 -131,435c-26,30 -57,68 -70,86c-13,17 -103,101 -200,187c-242,214 -288,258 -344,325c-26,32 -72,73 -100,92c-47,31 -68,37 -212,60c-88,14 -197,28 -242,31c-45,4 -87,10 -94,14c-9,6 -9,22 1,73c10,53 18,71 47,98c19,19 48,51 65,71l29,38l-12,97c-11,93 -14,100 -48,131c-49,45 -180,108 -275,132c-104,26 -257,26 -338,1zm362,-28c89,-25 202,-81 243,-119c19,-17 27,-40 36,-99c6,-42 11,-86 11,-98c0,-31 -115,-144 -160,-157c-64,-19 -267,-49 -416,-61c-123,-11 -142,-15 -113,-22c18,-5 98,-7 177,-3c135,5 142,5 142,-14c0,-28 -60,-43 -116,-29c-29,8 -68,8 -130,0c-138,-17 -135,-18 -199,47c-56,55 -95,107 -95,126c0,5 10,1 21,-10c21,-19 22,-19 15,2c-14,44 -36,160 -36,190c0,16 6,38 14,49c11,16 14,7 18,-71c4,-56 14,-111 28,-147c23,-62 45,-70 28,-10c-27,99 40,331 118,404c38,35 35,19 -7,-51c-49,-80 -85,-193 -94,-290l-6,-75l24,65c56,153 165,312 261,382c38,27 46,29 96,23c30,-4 93,-18 140,-32zm126,-568c26,-39 7,-122 -39,-172c-34,-38 -44,-29 -57,50c-6,39 -13,84 -16,100c-5,22 -1,29 18,36c43,18 76,13 94,-14zm-154,-160c22,-72 26,-102 22,-150c-8,-88 -20,-111 -75,-145c-125,-76 -264,-109 -327,-76c-28,14 -32,22 -32,57c0,22 -5,50 -11,61c-9,17 -8,24 3,32c20,15 11,77 -13,94c-34,24 -22,217 12,197c5,-4 23,-35 39,-71c34,-76 50,-84 153,-83l72,0l-45,18c-24,10 -45,22 -47,28c-2,5 17,14 41,21c30,8 51,21 67,43c25,35 77,70 98,67c9,-2 26,-39 43,-93zm201,-11c20,-41 12,-84 -30,-169c-64,-127 -156,-205 -242,-205c-56,0 -69,14 -35,35c89,55 107,69 134,106c16,23 43,77 60,121c28,71 75,148 91,148c3,0 13,-16 22,-36zm421,-479c10,-33 28,-79 42,-102c13,-23 24,-47 24,-53c0,-19 -122,73 -147,111c-23,35 -53,127 -52,159c0,8 15,-15 34,-51c18,-36 40,-71 49,-78c20,-16 20,-17 0,60c-17,68 -14,149 8,224c12,38 13,33 19,-85c3,-69 14,-152 23,-185zm371,152c17,-41 30,-157 18,-157c-8,0 -83,230 -83,255c0,14 49,-60 65,-98zm-859,-169c-13,-47 -27,-91 -31,-98c-8,-14 15,-3 78,37c42,27 48,16 17,-35c-11,-18 -20,-35 -20,-37c0,-3 32,-5 70,-5c39,0 70,-4 70,-10c0,-5 -13,-19 -30,-32c-16,-12 -30,-25 -30,-29c0,-4 36,-29 80,-56c44,-26 80,-51 80,-55c0,-3 -84,28 -187,69c-104,41 -199,79 -211,84l-24,9l32,58c48,85 120,195 125,190c3,-2 -6,-43 -19,-90zm-339,-78c45,-40 198,-116 473,-235c250,-108 300,-132 300,-143c0,-4 -46,-56 -101,-117c-58,-63 -141,-171 -196,-252l-94,-143l-316,0c-296,0 -315,1 -308,18c13,32 44,195 66,342c11,79 31,183 43,230c65,242 90,330 94,330c2,0 20,-14 39,-30zm1308,-192c88,-263 88,-267 9,-424c-33,-65 -85,-160 -115,-209c-86,-143 -267,-391 -303,-416c-18,-12 -57,-56 -87,-98c-95,-133 -138,-167 -178,-142c-10,6 -10,13 -2,28c9,19 7,20 -27,19c-47,-1 -53,22 -18,75c30,44 27,48 -14,19c-38,-27 -92,-49 -107,-43c-22,8 -14,27 22,50c54,35 239,198 268,236c54,71 257,481 299,602c11,33 22,63 24,67c3,4 30,-4 61,-17c30,-14 57,-25 58,-25c2,0 5,13 7,30c5,35 -4,40 -77,40l-54,0l-60,123c-34,68 -61,128 -61,134c0,6 29,21 64,33c34,11 96,43 137,70c41,27 77,49 80,50c4,0 37,-91 74,-202zm-1522,73c7,-7 5,-27 -7,-68c-14,-46 -25,-63 -52,-81c-40,-26 -41,-34 -14,-102c19,-47 19,-54 5,-127c-31,-160 -93,-328 -126,-338c-29,-9 -39,2 -39,44c0,61 102,624 121,670c9,21 14,23 55,18c25,-2 51,-10 57,-16zm1823,-36c-9,-46 -78,-118 -130,-135c-21,-6 -39,-10 -42,-7c-2,2 19,22 49,44c29,22 68,63 87,91c19,27 37,49 39,47c2,-2 0,-20 -3,-40zm-921,-412l-25,-66l27,-29c23,-24 25,-30 13,-38c-8,-5 -26,-10 -39,-10c-22,0 -19,-4 22,-36c44,-34 93,-101 83,-111c-3,-3 -24,11 -46,30c-39,33 -101,69 -108,63c-1,-2 2,-16 8,-31c6,-15 8,-30 5,-33c-5,-5 -144,33 -153,42c-12,13 205,286 228,286c6,0 -1,-30 -15,-67zm985,-13c0,-20 -44,-32 -101,-27c-116,10 -94,34 34,36c37,1 67,-3 67,-9zm-82,-219c21,-12 6,-18 -105,-40c-155,-32 -229,-25 -153,14c75,39 211,52 258,26zm-1027,-96c15,-22 34,-58 43,-80c17,-42 12,-38 -41,39l-33,46l-60,0c-62,0 -78,13 -37,30c12,5 40,8 62,7c34,-2 43,-8 66,-42zm-1091,-145c0,-5 -10,-14 -21,-21c-17,-9 -23,-8 -30,2c-15,23 -10,29 21,29c17,0 30,-4 30,-10zm1548,-212c-17,-79 -31,-144 -32,-144c0,-1 -27,1 -58,3c-68,6 -71,15 -32,83c34,60 135,200 145,200c4,0 -7,-64 -23,-142zm343,-92c37,-8 90,-26 118,-40l51,-26l-24,-63c-13,-34 -44,-113 -70,-176l-45,-114l75,-86c135,-155 147,-177 319,-590c27,-62 65,-139 86,-171c22,-32 39,-61 39,-65c0,-22 -97,-80 -159,-94l-42,-9l-202,252c-271,336 -288,361 -157,226c88,-91 110,-109 106,-87c-4,15 -4,27 -1,27c2,0 63,-83 136,-185c92,-130 136,-185 150,-185c26,0 24,14 -10,64c-17,24 -76,119 -132,212c-117,194 -185,292 -294,419c-102,119 -104,123 -72,178l27,45l-71,-30c-117,-49 -182,-41 -200,25c-13,49 -5,280 14,397c11,71 13,75 42,81c56,12 250,9 316,-5zm-1186,-546c-128,-523 -239,-953 -264,-1025c-19,-54 -61,-115 -61,-88c0,10 366,1494 376,1522c4,12 8,11 24,-5c19,-19 19,-23 -75,-404zm781,359c3,-6 7,-77 8,-157c1,-178 2,-179 145,-370l99,-132l-73,-318c-41,-174 -77,-326 -79,-338c-5,-18 -103,-81 -111,-72c-8,9 -185,510 -194,548c-5,25 -19,106 -31,180c-12,74 -39,189 -60,255c-21,66 -50,158 -64,205l-26,84l37,38c51,53 100,65 150,38c44,-23 101,-26 129,-6c15,12 17,17 7,27c-7,7 -13,17 -13,21c0,12 68,10 76,-3zm484,-235c0,-8 -4,-12 -10,-9c-5,3 -10,13 -10,21c0,8 5,12 10,9c6,-3 10,-13 10,-21zm-945,-289c42,-110 135,-348 206,-529c72,-181 128,-330 126,-332c-6,-6 -116,237 -182,400c-52,127 -245,668 -245,683c1,17 21,-30 95,-222zm-196,78c12,-40 64,-158 116,-262c86,-173 177,-397 192,-473c5,-25 1,-34 -18,-49c-13,-10 -29,-19 -35,-19c-6,0 -16,37 -23,85c-32,231 -130,452 -264,601c-43,48 -46,53 -37,85c5,19 14,54 20,78c6,24 15,40 20,35c4,-5 18,-42 29,-81zm1502,-332c71,-179 127,-326 125,-329c-13,-13 -76,105 -157,296c-50,119 -105,243 -121,275c-23,47 -27,61 -17,73c7,8 19,14 27,12c9,-2 63,-126 143,-327zm322,121c75,-40 153,-126 198,-217c56,-114 80,-216 86,-371c6,-137 -3,-307 -16,-299c-5,2 -11,66 -14,142c-14,322 -127,599 -296,729c-82,61 -59,70 42,16zm-2563,-117c0,-3 -20,-27 -44,-53c-87,-95 -153,-208 -204,-352c-53,-151 -66,-237 -66,-420c1,-144 4,-177 26,-261c65,-242 204,-416 375,-469c93,-29 207,-27 297,5c39,13 71,23 73,21c6,-6 -88,-63 -150,-91c-274,-126 -567,36 -682,375c-55,163 -71,377 -40,553c44,255 171,495 337,638c66,57 78,65 78,54zm2379,-421c-7,-9 -38,-30 -67,-47c-45,-25 -51,-32 -37,-40c22,-12 47,-71 39,-92c-3,-8 -33,-32 -65,-52c-33,-20 -58,-37 -57,-39c2,-1 27,2 57,7c36,5 71,20 104,43c28,20 54,33 58,31c4,-3 13,-21 19,-40c11,-34 10,-38 -37,-97c-116,-146 -162,-180 -298,-214c-82,-21 -73,-40 18,-38c112,3 186,46 283,167c65,81 120,134 130,124c5,-4 -104,-150 -175,-233c-62,-73 -144,-104 -278,-104c-66,0 -74,2 -89,25c-20,30 -16,42 62,185c43,80 55,113 74,213c25,130 22,127 113,146c31,7 70,23 85,35c52,43 91,56 61,20zm-2103,-121c-3,-10 -15,-62 -26,-116c-21,-105 -19,-123 22,-151c60,-42 120,-4 146,94c9,36 22,64 27,63c15,-2 26,-82 20,-139c-6,-48 -48,-149 -77,-185c-7,-9 -31,-28 -52,-43c-93,-63 -201,-4 -237,129c-25,91 8,234 69,299c52,55 119,85 108,49zm1376,-50c26,-29 66,-123 73,-174c8,-54 -11,-55 203,6c73,21 135,35 138,32c7,-6 -45,-109 -60,-119c-6,-4 -70,-21 -143,-38c-91,-22 -133,-36 -138,-47c-9,-25 13,-33 100,-33c85,0 106,-9 97,-42c-4,-18 -12,-19 -110,-17l-104,3l-34,-70c-39,-77 -70,-122 -79,-113c-3,4 8,34 25,68c17,34 35,75 40,91l9,30l-58,0c-51,0 -59,-3 -70,-24c-7,-13 -24,-30 -37,-37c-20,-10 -27,-10 -44,6c-29,26 -43,80 -35,133c28,189 155,223 155,42l0,-60l49,0c57,0 61,6 61,84c0,110 -27,200 -81,268c-39,48 0,59 43,11zm-382,-243c0,-6 -55,-10 -145,-10c-90,0 -145,4 -145,10c0,6 55,10 145,10c90,0 145,-4 145,-10zm1235,-218c-7,-40 -41,-59 -190,-102c-149,-43 -271,-70 -326,-70c-39,0 -47,4 -57,25c-7,14 -12,45 -12,68l1,42l17,-35c17,-33 20,-35 67,-34c62,2 263,47 370,82l80,27l25,100l25,100l3,-85c2,-47 0,-100 -3,-118z" fill="#327b74" id="svg_2"/>
      <path d="m3430,-239c-127,-41 -248,-124 -341,-234c-32,-39 -59,-74 -59,-78c0,-13 126,47 203,97c76,49 196,140 262,198c38,34 39,35 15,35c-14,0 -50,-8 -80,-18z" fill="#327b74" id="svg_3"/>
      <path d="m3550,-685c0,-14 3,-25 8,-25c4,0 13,-4 20,-9c12,-7 12,-12 1,-29c-17,-27 -3,-41 16,-16c21,28 19,81 -4,94c-31,16 -41,12 -41,-15z" fill="#327b74" id="svg_4"/>
      <path d="m5420,-3101c-162,-140 -153,-125 -84,-144c423,-121 669,-666 568,-1259c-69,-407 -282,-741 -586,-920l-83,-48l290,6c480,11 1547,43 1747,52l137,7l-5,26c-3,14 -56,292 -118,616l-114,590l-91,189c-50,105 -93,191 -95,193c-2,2 -70,-26 -151,-62c-82,-36 -149,-64 -150,-63c-1,2 -94,112 -208,244l-206,241l-83,7c-46,4 -99,11 -118,16c-22,6 -121,79 -275,204c-132,107 -247,195 -255,196c-9,0 -63,-41 -120,-91z" fill="#327b74" id="svg_5"/>
      <path d="m2088,-3692c-85,-90 -172,-182 -193,-206c-21,-24 -46,-47 -55,-52c-12,-6 -51,2 -126,25c-60,19 -114,35 -121,35c-7,0 -75,-48 -152,-107l-139,-108l-108,-173c-163,-259 -330,-522 -336,-527c-2,-2 -57,9 -121,26c-64,18 -123,29 -130,26c-8,-3 -25,-25 -39,-49c-13,-24 -110,-189 -215,-368c-104,-179 -204,-351 -222,-383l-33,-58l203,6c112,3 377,10 589,15c445,12 982,27 1287,36l212,6l-50,60c-105,126 -165,231 -218,381c-87,247 -104,565 -45,857c36,177 138,422 238,574c25,38 46,72 46,75c0,8 -97,71 -109,71c-5,0 -79,-73 -163,-162z" fill="#327b74" id="svg_6"/>
      <path d="m3836,-4844c-30,-99 -114,-283 -169,-371c-50,-81 -117,-165 -186,-237l-64,-68l79,0c43,0 309,7 589,15c281,8 552,15 603,15c50,0 92,4 92,8c0,4 -16,14 -35,21c-60,21 -181,109 -235,169c-29,31 -74,94 -102,139c-47,76 -52,81 -75,72c-32,-12 -99,-11 -146,2c-89,24 -177,149 -196,279l-6,45l-60,3l-60,3l-29,-95z" fill="#327b74" id="svg_7"/>
      <path d="m6216,-5612c-8,-18 -35,-99 -62,-180c-27,-82 -51,-148 -55,-148c-4,0 -36,78 -71,173l-65,172l-146,3c-81,1 -147,0 -147,-3c0,-3 68,-148 150,-322l150,-316l0,-85l0,-85l23,21c37,35 74,44 107,27c57,-29 46,-82 -28,-128c-20,-13 -50,-32 -67,-43c-23,-14 -26,-19 -13,-22c19,-4 140,52 211,97l48,31l-1,108l-1,107l121,280c67,154 128,295 135,313l14,32l-145,0l-145,0l-13,-32z" fill="#327b74" id="svg_8"/>
      <path d="m5478,-5598l-128,-3l0,-186l0,-186l33,27c73,59 180,126 201,126c12,0 28,-6 34,-12c10,-10 12,13 10,111c-2,74 -7,125 -13,125c-5,1 -67,0 -137,-2z" fill="#327b74" id="svg_9"/>
      <path d="m4290,-5615c-194,-55 -290,-227 -290,-521c0,-150 22,-283 49,-291c9,-2 29,-11 44,-19c16,-7 39,-14 51,-14c13,0 31,-9 41,-20c18,-19 18,-30 -1,-112c-5,-21 -2,-28 8,-28c21,0 131,69 188,118c52,45 90,50 90,13c0,-19 -80,-100 -153,-154l-47,-36l37,-10c91,-26 253,0 313,49l25,21l-35,-14c-19,-8 -47,-20 -62,-27c-23,-11 -31,-10 -53,4c-57,38 -33,57 165,131c100,38 111,53 137,187c19,104 13,323 -12,413c-42,148 -125,255 -232,295c-76,29 -190,35 -263,15zm175,-296c50,-44 70,-115 69,-249c0,-126 -15,-183 -59,-227c-46,-46 -95,-46 -140,1c-46,49 -60,109 -59,256c0,140 12,180 64,224c42,35 81,34 125,-5z" fill="#327b74" id="svg_10"/>
      <path d="m4968,-5607l-98,-4l0,-142c0,-78 3,-267 7,-420l6,-278l26,6c14,3 37,19 51,36c154,191 209,255 273,318l76,74l-105,209c-80,159 -108,208 -122,206c-9,-1 -61,-4 -114,-5z" fill="#327b74" id="svg_11"/>
      <path d="m3277,-5637l-98,-4l6,-427c6,-414 9,-462 22,-449c9,9 43,-12 43,-27c0,-7 -11,-23 -25,-36c-21,-19 -25,-33 -25,-77l0,-53l48,0c27,0 90,3 141,7l92,6l-7,189l-7,188l104,1c57,0 113,4 123,8c14,6 39,67 100,247c74,219 83,239 104,238c27,-1 27,-2 2,45c-30,59 -100,116 -168,135c-58,16 -170,18 -455,9zm393,-279c33,-32 34,-94 2,-126c-19,-20 -35,-23 -111,-26l-88,-4l-6,54c-4,29 -7,70 -7,90l0,37l58,4c85,5 124,-3 152,-29z" fill="#327b74" id="svg_12"/>
      <path d="m2283,-5657l-33,-4l1,-222l0,-222l37,102c21,57 42,107 48,113c8,8 19,5 39,-12l28,-24l-72,-208l-71,-207l0,-155l0,-154l50,25c27,14 72,45 100,70c73,65 122,71 157,19c15,-24 15,-27 -4,-52c-17,-23 -64,-59 -129,-98c-10,-7 -16,-15 -11,-20c4,-4 59,18 123,50c82,41 127,70 157,102c70,76 122,92 171,53c33,-26 46,-18 46,30l0,37l-188,-4l-189,-5l-6,219c-4,121 -7,299 -7,397l0,177l-107,-2c-60,0 -123,-3 -140,-5z" fill="#327b74" id="svg_13"/>
      <path d="m1676,-5667l-168,-3l7,-358c4,-196 9,-358 10,-360c2,-2 42,76 90,172c91,184 102,197 140,157c17,-19 15,-26 -53,-178c-120,-269 -172,-409 -172,-458c0,-60 23,-60 43,0c44,127 147,200 213,150c10,-8 31,-15 47,-15c39,0 69,-33 61,-68c-10,-46 -14,-61 -20,-82c-5,-20 -4,-20 30,-6c41,17 116,66 166,110c29,25 59,84 60,119c0,4 -74,7 -165,7l-166,0l3,78l3,77l188,3l187,2l0,127l0,126l-189,-6l-189,-5l-6,36c-3,20 -6,55 -6,78l0,41l192,7c105,3 192,7 193,9c1,1 0,57 -3,125l-4,122l-162,-2c-88,-1 -237,-4 -330,-5z" fill="#327b74" id="svg_14"/>
      <path d="m3876,-6077c-31,-93 -56,-172 -56,-177c0,-6 16,5 35,24c56,54 77,111 83,223c2,53 2,97 0,97c-3,0 -31,-75 -62,-167z" fill="#327b74" id="svg_15"/>
      <path d="m5485,-5977c-33,-26 -111,-97 -173,-158l-114,-111l33,-67c32,-64 35,-67 69,-67c65,0 74,7 102,78c15,37 54,134 88,215c34,82 60,151 58,153c-2,2 -31,-18 -63,-43z" fill="#327b74" id="svg_16"/>
      <path d="m5551,-6161c-41,-96 -76,-182 -78,-191c-4,-13 5,-18 44,-23c26,-3 65,-10 86,-14l37,-9l-1,147c-1,80 -4,173 -8,205l-6,59l-74,-174z" fill="#327b74" id="svg_17"/>
      <path d="m5113,-6353c-23,-28 -41,-53 -40,-54c2,-1 21,1 45,4l42,6l0,48c0,27 -1,49 -2,48c-2,0 -22,-23 -45,-52z" fill="#327b74" id="svg_18"/>
      <path d="m5408,-6521c-24,-80 -25,-85 -9,-118l16,-34l113,5c62,3 114,7 115,9c2,2 1,48 -1,101c-3,75 -7,98 -19,102c-9,4 -55,9 -102,13l-87,6l-26,-84z" fill="#327b74" id="svg_19"/>
      <path d="m5310,-6459c0,-5 3,-17 6,-26c5,-13 8,-14 15,-3c13,20 11,38 -6,38c-8,0 -15,-4 -15,-9z" fill="#327b74" id="svg_20"/>
      <path d="m5075,-6487c-38,-8 -71,-15 -71,-16c-20,-25 -104,-162 -104,-170c0,-6 45,-7 132,-3c73,4 133,8 133,9c4,13 -9,197 -13,196c-4,0 -38,-7 -77,-16z" fill="#327b74" id="svg_21"/>
      <path d="m6190,-6536c-56,-40 -167,-94 -195,-94c-16,0 -25,-6 -25,-15c0,-17 69,-20 203,-9c64,6 77,10 77,24c0,10 -7,24 -16,31c-12,9 -15,24 -11,51c3,21 4,38 4,38c-1,-1 -18,-12 -37,-26z" fill="#327b74" id="svg_22"/>
      <path d="m2176,-6628c-4,-24 -5,-46 -2,-49c12,-12 17,6 14,48l-3,44l-9,-43z" fill="#327b74" id="svg_23"/>
      <path d="m2825,-6675l-50,-46l40,5c22,3 50,6 63,6c15,0 21,4 16,12c-4,6 -10,24 -13,40l-6,29l-50,-46z" fill="#327b74" id="svg_24"/>
      <path d="m1755,-6710l-29,-30l37,0c34,0 37,2 37,30c0,17 -4,30 -8,30c-5,0 -21,-13 -37,-30z" fill="#327b74" id="svg_25"/>
      <path d="m2060,-6705l-23,-25l41,0c45,0 47,2 32,31c-14,25 -22,24 -50,-6z" fill="#327b74" id="svg_26"/>
      <path d="m2316,-6705c-19,-15 -19,-15 2,-15c13,0 22,6 22,15c0,18 0,18 -24,0z" fill="#327b74" id="svg_27"/>
      <path d="m2606,-6705c-19,-14 -19,-15 7,-15c17,0 27,5 27,15c0,19 -9,19 -34,0z" fill="#327b74" id="svg_28"/>
    </g>
  </g>
</svg>